<svg width="312" height="216" viewBox="0 0 312 216" fill="none" xmlns="http://www.w3.org/2000/svg">
<rect width="312" height="216" fill="#E5E5E5"/>
<ellipse cx="156" cy="108" rx="156" ry="108" fill="#FFF3F3"/>
<path d="M162.164 109.116H147.135V135H138.653V71.0156H159.835C167.042 71.0156 172.579 72.6562 176.446 75.9375C180.343 79.2188 182.291 83.9941 182.291 90.2637C182.291 94.248 181.207 97.7197 179.039 100.679C176.9 103.638 173.912 105.85 170.074 107.314L185.104 134.473V135H176.051L162.164 109.116ZM147.135 102.217H160.099C164.288 102.217 167.613 101.133 170.074 98.9648C172.564 96.7969 173.81 93.8965 173.81 90.2637C173.81 86.3086 172.623 83.2764 170.25 81.167C167.906 79.0576 164.508 77.9883 160.055 77.959H147.135V102.217Z" fill="black"/>
</svg>
